<svg width="123" height="121" viewBox="0 0 123 121" fill="none" xmlns="http://www.w3.org/2000/svg">
<g opacity="0.6" filter="url(#filter0_f_590_2325)">
<circle cx="61.8357" cy="62.0207" r="23.6883" fill="url(#paint0_radial_590_2325)"/>
</g>
<circle cx="69.9332" cy="92.5654" r="1.068" fill="white"/>
<circle cx="85.9996" cy="89.1656" r="1.068" fill="white"/>
<circle opacity="0.4" cx="62.6715" cy="77.1862" r="1.068" fill="white"/>
<circle cx="69.4723" cy="58.9084" r="1.068" fill="white"/>
<circle cx="57.3315" cy="57.3215" r="0.427199" fill="white"/>
<circle cx="48.7876" cy="47.0687" r="0.427199" fill="white"/>
<circle opacity="0.7" cx="69.7202" cy="42.7968" r="0.427199" fill="white"/>
<circle cx="53.4868" cy="72.2735" r="0.427199" fill="white"/>
<circle cx="56.477" cy="85.9438" r="0.427199" fill="white"/>
<circle cx="59.4672" cy="99.6142" r="0.427199" fill="white"/>
<circle opacity="0.7" cx="77.8364" cy="80.8175" r="0.427199" fill="white"/>
<circle cx="39.8159" cy="78.2542" r="0.427199" fill="white"/>
<circle opacity="0.4" cx="40.6704" cy="41.9423" r="0.427199" fill="white"/>
<circle opacity="0.4" cx="79.1186" cy="50.9135" r="0.427199" fill="white"/>
<circle cx="31.6997" cy="37.272" r="0.427199" fill="white"/>
<circle opacity="0.4" cx="27.4272" cy="75.6911" r="0.427199" fill="white"/>
<circle opacity="0.7" cx="50.0688" cy="92.779" r="0.427199" fill="white"/>
<circle cx="93.2065" cy="62.0207" r="0.427199" fill="white"/>
<circle opacity="0.7" cx="48.5739" cy="66.9335" r="1.068" fill="white"/>
<circle cx="78.4772" cy="43.8936" r="1.068" fill="white"/>
<circle opacity="0.4" cx="48.5739" cy="25.068" r="1.068" fill="white"/>
<circle cx="84.0211" cy="60.0983" r="1.068" fill="white"/>
<circle cx="32.3405" cy="61.3799" r="1.068" fill="white"/>
<defs>
<filter id="filter0_f_590_2325" x="0.723976" y="0.908913" width="122.224" height="122.223" filterUnits="userSpaceOnUse" color-interpolation-filters="sRGB">
<feFlood flood-opacity="0" result="BackgroundImageFix"/>
<feBlend mode="normal" in="SourceGraphic" in2="BackgroundImageFix" result="shape"/>
<feGaussianBlur stdDeviation="18.7117" result="effect1_foregroundBlur_590_2325"/>
</filter>
<radialGradient id="paint0_radial_590_2325" cx="0" cy="0" r="1" gradientUnits="userSpaceOnUse" gradientTransform="translate(61.8357 62.0207) rotate(90) scale(23.6883)">
<stop offset="0.685" stop-color="#3FD1FF"/>
<stop offset="1" stop-color="#266799"/>
</radialGradient>
</defs>
</svg>
