<svg width="223" height="72" viewBox="0 0 223 72" fill="none" xmlns="http://www.w3.org/2000/svg">
<path d="M41.8301 26.0671H58.9999" stroke="#F7F7F8" stroke-width="2" stroke-linecap="square" stroke-linejoin="round"/>
<path d="M30.6035 30.6533H57.679" stroke="#F7F7F8" stroke-width="2" stroke-linecap="square" stroke-linejoin="round"/>
<path d="M30.6035 40.481H57.679" stroke="#F7F7F8" stroke-width="2" stroke-linecap="square" stroke-linejoin="round"/>
<path d="M41.8301 45.0671H58.9999" stroke="#F7F7F8" stroke-width="2" stroke-linecap="square" stroke-linejoin="round"/>
<path d="M24 35.2395L57.0189 35.2395" stroke="#F7F7F8" stroke-width="2" stroke-linecap="square" stroke-linejoin="round"/>
<path d="M67.358 29.8091L65.9 29.5931V28.6931H71.066V29.5931L69.284 29.8091V41.0051L73.928 40.8431L74.99 37.8191L76.088 37.9811L75.458 42.0671H65.864V41.1851L67.358 41.0051V29.8091ZM78.7302 29.8091L77.2542 29.5931V28.6931H86.4162L86.6682 31.4831H85.6422L85.1202 29.7371L80.6562 29.6291V34.7051L83.6622 34.6511L83.9142 33.1571H84.9042V37.2971H83.9142L83.6622 35.7491L80.6562 35.6951V41.0591L85.7322 40.8791L86.6862 38.6111L87.7482 38.9351L87.2262 42.0671H77.2362V41.1851L78.7302 41.0051V29.8091ZM94.4148 42.2651C93.1908 42.2651 92.1528 41.9831 91.3008 41.4191C90.4608 40.8551 89.8248 40.0631 89.3928 39.0431C88.9608 38.0111 88.7448 36.8171 88.7448 35.4611C88.7448 34.0811 89.0028 32.8691 89.5188 31.8251C90.0468 30.7811 90.7668 29.9771 91.6788 29.4131C92.5908 28.8371 93.6168 28.5491 94.7568 28.5491C96.6288 28.5491 98.0568 29.1431 99.0408 30.3311C100.037 31.5071 100.535 33.1391 100.535 35.2271C100.535 36.6311 100.265 37.8671 99.7248 38.9351C99.1968 39.9911 98.4648 40.8131 97.5288 41.4011C96.6048 41.9771 95.5668 42.2651 94.4148 42.2651ZM94.6488 29.4851C93.4848 29.4851 92.5668 29.9951 91.8948 31.0151C91.2228 32.0231 90.8868 33.5051 90.8868 35.4611C90.8868 37.2611 91.2108 38.6891 91.8588 39.7451C92.5188 40.7891 93.4368 41.3111 94.6128 41.3111C95.7648 41.3111 96.6768 40.7891 97.3488 39.7451C98.0328 38.7011 98.3748 37.2011 98.3748 35.2451C98.3748 33.4331 98.0508 32.0231 97.4028 31.0151C96.7548 29.9951 95.8368 29.4851 94.6488 29.4851ZM103.463 29.8091L102.023 29.5931V28.6931H105.371L111.365 37.4771L112.373 39.3851V29.8091L110.807 29.5931V28.6931H115.055V29.5931L113.615 29.8091V42.0671H112.193L106.073 33.0851L104.687 30.7091V41.0051L106.397 41.1851V42.0671H102.023V41.1851L103.463 40.9871V29.8091ZM122.095 29.8091L120.691 29.5931V28.6931H123.049C123.421 28.6931 123.955 28.6691 124.651 28.6211C125.347 28.5731 125.869 28.5491 126.217 28.5491C128.449 28.5491 130.105 29.1131 131.185 30.2411C132.277 31.3571 132.823 32.9291 132.823 34.9571C132.823 36.3731 132.541 37.6331 131.977 38.7371C131.425 39.8291 130.645 40.6811 129.637 41.2931C128.629 41.9051 127.471 42.2111 126.163 42.2111C125.875 42.2111 125.383 42.1871 124.687 42.1391C123.967 42.0911 123.427 42.0671 123.067 42.0671H120.601V41.1851L122.095 41.0051V29.8091ZM124.003 41.0591C124.423 41.1551 124.963 41.2031 125.623 41.2031H126.163C127.063 41.1911 127.855 40.9631 128.539 40.5191C129.235 40.0751 129.775 39.4151 130.159 38.5391C130.543 37.6511 130.735 36.5771 130.735 35.3171C130.735 33.4211 130.321 31.9811 129.493 30.9971C128.677 30.0131 127.441 29.5211 125.785 29.5211C125.437 29.5211 125.023 29.5451 124.543 29.5931C124.339 29.6291 124.159 29.6471 124.003 29.6471V41.0591ZM135.772 29.8091L134.35 29.5931V28.6931H139.246V29.5931L137.698 29.8091V34.6511H144.034V29.8091L142.576 29.5931V28.6931H147.4V29.5931L145.978 29.8091V41.0051L147.4 41.1851V42.0671H142.558V41.1851L144.034 41.0051V35.7671H137.698V41.0051L139.264 41.1851V42.0671H134.314V41.1851L135.772 41.0051V29.8091ZM150.966 29.8091L149.292 29.5931V28.6931H154.584V29.5931L152.91 29.8091V41.0051L154.584 41.2031V42.0671H149.31V41.1851L150.966 41.0051V29.8091ZM158.532 29.8091L156.57 29.5931V28.6931H161.34L163.878 36.7931L164.472 39.0791L165.012 36.7931L167.532 28.6931H172.266V29.5931L170.286 29.8091L171.726 40.9871L173.292 41.1851V42.0671H168.108V41.1851L169.746 41.0051L168.936 32.9231L168.558 29.4491L167.802 32.0411L164.796 41.4551H163.626L160.71 32.8331L159.648 29.4311L159.324 32.9231L158.604 41.0051L160.386 41.1851V42.0671H155.688V41.1851L157.218 41.0051L158.532 29.8091ZM175.726 29.8091L174.25 29.5931V28.6931H176.68C177.088 28.6931 177.604 28.6691 178.228 28.6211C178.804 28.5731 179.23 28.5491 179.506 28.5491C181.162 28.5491 182.344 28.8071 183.052 29.3231C183.772 29.8391 184.132 30.5951 184.132 31.5911C184.132 32.4431 183.886 33.1751 183.394 33.7871C182.902 34.3991 182.23 34.7831 181.378 34.9391C182.53 34.9151 183.436 35.1851 184.096 35.7491C184.756 36.3131 185.086 37.0811 185.086 38.0531C185.086 39.2651 184.654 40.2551 183.79 41.0231C182.938 41.7911 181.522 42.1751 179.542 42.1751C179.11 42.1751 178.696 42.1571 178.3 42.1211C177.364 42.0851 176.806 42.0671 176.626 42.0671H174.232V41.1851L175.726 41.0051V29.8091ZM177.634 34.5971C177.802 34.6091 178.144 34.6151 178.66 34.6151H179.65C180.49 34.6151 181.126 34.3811 181.558 33.9131C181.99 33.4451 182.206 32.7791 182.206 31.9151C182.206 31.0751 181.99 30.4631 181.558 30.0791C181.126 29.6831 180.388 29.4851 179.344 29.4851C178.912 29.4851 178.468 29.5091 178.012 29.5571L177.634 29.5931V34.5971ZM177.634 41.0591C177.91 41.1551 178.534 41.2031 179.506 41.2031C180.718 41.2031 181.594 40.9571 182.134 40.4651C182.686 39.9611 182.962 39.2411 182.962 38.3051C182.962 37.3811 182.722 36.7091 182.242 36.2891C181.774 35.8691 181.012 35.6591 179.956 35.6591C178.732 35.6591 177.958 35.6711 177.634 35.6951V41.0591ZM190.947 28.5851H192.927L197.301 41.0051L198.417 41.1851V42.0671H193.665V41.1851L195.159 41.0051L194.313 38.3411H189.057L188.211 41.0051L189.759 41.1851V42.0671H185.493V41.1851L186.609 41.0051L190.947 28.5851ZM192.081 31.4651L191.631 29.8811L191.199 31.5011L189.381 37.2791H193.971L192.081 31.4651Z" fill="#F7F7F8"/>
</svg>
